<?xml version="1.0" encoding="utf-8"?>
<!-- Generator: Adobe Illustrator 16.0.0, SVG Export Plug-In . SVG Version: 6.00 Build 0)  -->
<!DOCTYPE svg PUBLIC "-//W3C//DTD SVG 1.1//EN" "http://www.w3.org/Graphics/SVG/1.1/DTD/svg11.dtd">
<svg version="1.1" id="Layer_1" xmlns="http://www.w3.org/2000/svg" xmlns:xlink="http://www.w3.org/1999/xlink" x="0px" y="0px"
	 width="28px" height="28px" viewBox="0 0 28 28" enable-background="new 0 0 28 28" xml:space="preserve">
<g>
	<path fill="none" stroke="#4D4D4D" stroke-width="2" stroke-miterlimit="10" d="M1.5,14c0,6.903,5.593,12.5,12.5,12.5
		c6.902,0,12.5-5.597,12.5-12.5S20.902,1.5,14,1.5C7.093,1.5,1.5,7.097,1.5,14z"/>
	<g>
		<path fill="#4D4D4D" d="M8.375,12.125V21.5h11.25v-9.375H8.375z M14.598,16.133v2.929c0,0.333-0.27,0.6-0.598,0.6
			c-0.333,0-0.602-0.267-0.602-0.6v-2.929c-0.187-0.163-0.305-0.4-0.305-0.668c0-0.498,0.408-0.901,0.906-0.901
			s0.903,0.403,0.903,0.901C14.903,15.732,14.782,15.97,14.598,16.133z"/>
		<path fill="none" stroke="#4D4D4D" stroke-width="2" stroke-miterlimit="10" d="M11.5,16.4V8.999c0,0,0-2.499,2.5-2.499
			c2.495,0,2.495,2.499,2.495,2.499V16.4"/>
	</g>
</g>
</svg>
