<svg xmlns="http://www.w3.org/2000/svg" viewBox="0 0 36 26"><defs><style>.cls-1{fill:#a7a9ac;}</style></defs><title>Asset 9Koda</title><g id="Layer_2" data-name="Layer 2"><g id="Layer_1-2" data-name="Layer 1"><path class="cls-1" d="M35.5,0H.5A.5.5,0,0,0,0,.5v25a.5.5,0,0,0,.5.5h35a.5.5,0,0,0,.5-.5V.5A.5.5,0,0,0,35.5,0ZM35,12.5H26v-2a.5.5,0,0,0-1,0v2H18.5V6h2a.5.5,0,0,0,.5-.5.51.51,0,0,0-.5-.5h-2V1H35ZM17.5,1V5h-2a.51.51,0,0,0-.5.5.5.5,0,0,0,.5.5h2v6.5H11v-2a.5.5,0,0,0-.5-.5.51.51,0,0,0-.5.5v2H1V1ZM1,13.5h9v2a.51.51,0,0,0,.5.5.5.5,0,0,0,.5-.5v-2h6.5V20h-2a.5.5,0,0,0,0,1h2v4H1ZM18.5,25V21h2a.5.5,0,0,0,0-1h-2V13.5H25v2a.5.5,0,0,0,1,0v-2h9V25Z"/></g></g></svg>