<svg xmlns="http://www.w3.org/2000/svg" viewBox="0 0 26 26"><defs><style>.cls-1{fill:#a7a9ac;}</style></defs><title>Asset 10Koda</title><g id="Layer_2" data-name="Layer 2"><g id="Layer_1-2" data-name="Layer 1"><path class="cls-1" d="M25.5,20a.5.5,0,0,0-.5.5v3.79l-9.14-9.15a.51.51,0,0,0-.71,0,.5.5,0,0,0,0,.71L24.29,25H20.5a.5.5,0,0,0,0,1h5a.41.41,0,0,0,.19,0,.51.51,0,0,0,.27-.27.41.41,0,0,0,0-.19v-5A.5.5,0,0,0,25.5,20Z"/><path class="cls-1" d="M26,.31A.51.51,0,0,0,25.69,0a.41.41,0,0,0-.19,0h-5a.5.5,0,0,0-.5.5.5.5,0,0,0,.5.5h3.79l-9.14,9.15a.5.5,0,0,0,0,.71.52.52,0,0,0,.35.14.54.54,0,0,0,.36-.14L25,1.71V5.5a.5.5,0,0,0,1,0V.5A.41.41,0,0,0,26,.31Z"/><path class="cls-1" d="M1.71,1H5.5a.5.5,0,0,0,0-1H.5A.41.41,0,0,0,.31,0,.51.51,0,0,0,0,.31.41.41,0,0,0,0,.5v5A.5.5,0,0,0,.5,6,.5.5,0,0,0,1,5.5V1.71l9.14,9.15a.52.52,0,0,0,.71,0,.51.51,0,0,0,0-.71Z"/><path class="cls-1" d="M10.14,15.14,1,24.29V20.5A.5.5,0,0,0,.5,20a.5.5,0,0,0-.5.5v5a.41.41,0,0,0,0,.19A.51.51,0,0,0,.31,26,.41.41,0,0,0,.5,26h5a.5.5,0,0,0,0-1H1.71l9.14-9.15a.5.5,0,0,0-.71-.71Z"/></g></g></svg>