<?xml version="1.0" encoding="utf-8"?>
<!-- Generator: Adobe Illustrator 15.0.0, SVG Export Plug-In  -->
<!DOCTYPE svg PUBLIC "-//W3C//DTD SVG 1.1//EN" "http://www.w3.org/Graphics/SVG/1.1/DTD/svg11.dtd" [
	<!ENTITY ns_flows "http://ns.adobe.com/Flows/1.0/">
]>
<svg version="1.1"
	 xmlns="http://www.w3.org/2000/svg" xmlns:xlink="http://www.w3.org/1999/xlink" xmlns:a="http://ns.adobe.com/AdobeSVGViewerExtensions/3.0/"
	 x="0px" y="0px" width="612px" height="792px" viewBox="0.285 -89.461 612 792" enable-background="new 0.285 -89.461 612 792"
	 xml:space="preserve">
<defs>
</defs>
<path fill="#A7A9AC" d="M364.862,495.274c6.5-0.03,11.743-5.323,11.713-11.823l-0.422-89.211L592.31,608.598
	c4.678,4.492,12.078,4.457,16.713-0.078c4.593-4.599,4.589-12.051-0.012-16.645c-0.023-0.022-0.046-0.046-0.068-0.068
	L392.788,377.449l89.21-0.422c6.5-0.03,11.744-5.324,11.712-11.824c-0.03-6.5-5.324-11.743-11.824-11.713l-117.69,0.556
	c-1.473-0.344-3.004-0.337-4.472,0.021c-2.856,1.229-5.124,3.519-6.326,6.386c-0.343,1.472-0.336,3.004,0.021,4.473l0.556,117.689
	c-0.509,6.481,4.332,12.146,10.813,12.655C364.811,495.27,364.836,495.272,364.862,495.274z"/>
<path fill="#A7A9AC" d="M353.205,251.424c1.204,3.408,3.882,6.093,7.287,7.307c1.471,0.352,3.002,0.354,4.473,0.006l117.692,0.16
	c6.5,0.009,11.776-5.253,11.784-11.753c0.009-6.5-5.252-11.776-11.752-11.785l-89.211-0.122L608.912,20.152
	c4.621-4.571,4.662-12.022,0.091-16.644c-0.024-0.022-0.046-0.045-0.068-0.068c-2.234-2.093-5.172-3.272-8.233-3.306
	c-3.135,0.012-6.154,1.181-8.479,3.284L376.788,218.501l0.121-89.21c0.009-6.5-5.253-11.776-11.753-11.785
	c-6.499-0.009-11.776,5.253-11.785,11.753l-0.159,117.692C352.858,248.421,352.856,249.953,353.205,251.424z"/>
<path fill="#A7A9AC" d="M217.725,236.402l-89.209-0.44c-6.5-0.032-11.795,5.211-11.827,11.711
	c-0.032,6.5,5.211,11.795,11.711,11.827l117.691,0.581c1.469,0.357,3,0.365,4.472,0.022c3.412-1.193,6.106-3.86,7.333-7.26
	c0.357-1.469,0.365-3.001,0.022-4.473l0.58-117.691c0.033-6.5-5.21-11.795-11.71-11.828c-6.5-0.032-11.795,5.212-11.828,11.712
	l-0.44,89.208L20.442,3.337C15.76-1.081,8.456-1.117,3.73,3.254c-4.538,4.634-4.574,12.034-0.083,16.712L217.725,236.402z"/>
<path fill="#A7A9AC" d="M20.15,609.342l215.735-214.783l-0.246,89.21c-0.018,6.5,5.237,11.784,11.737,11.801
	c6.5,0.019,11.783-5.236,11.802-11.736l0.324-117.691c0.354-1.47,0.358-3.001,0.012-4.473c-1.2-3.41-3.873-6.098-7.276-7.317
	c-1.47-0.354-3.001-0.358-4.472-0.012l-117.692-0.324c-6.5-0.019-11.784,5.236-11.802,11.736c-0.018,6.5,5.237,11.783,11.737,11.802
	l89.21,0.245L3.484,592.583c-4.627,4.603-4.648,12.085-0.046,16.713C8.041,613.922,15.523,613.943,20.15,609.342z"/>
</svg>
