<svg xmlns="http://www.w3.org/2000/svg" viewBox="0 0 40 35.34"><defs><style>.cls-1{fill:#ff0;}</style></defs><title>Asset 1Feedback</title><g id="Layer_2" data-name="Layer 2"><g id="Layer_2-2" data-name="Layer 2"><path class="cls-1" d="M20,3.38l8.36,14.48,8.36,14.48H3.28l8.36-14.48L20,3.38M20,0a2.6,2.6,0,0,0-2.27,1.31L9,16.36.36,31.4a2.63,2.63,0,0,0,2.27,3.94H37.37a2.63,2.63,0,0,0,2.27-3.94L31,16.36l-8.69-15A2.6,2.6,0,0,0,20,0Z"/><path class="cls-1" d="M19.89,24.18a1.5,1.5,0,0,1-1.5-1.5V13.19a1.5,1.5,0,1,1,3,0v9.49A1.5,1.5,0,0,1,19.89,24.18Z"/><circle class="cls-1" cx="19.89" cy="27.43" r="1.58"/></g></g></svg>