<svg xmlns="http://www.w3.org/2000/svg" viewBox="0 0 40 40"><defs><style>.cls-1{fill:#57535f;}.cls-2{fill:#fff;}</style></defs><title>Asset 16Koda</title><g id="Layer_2" data-name="Layer 2"><g id="Layer_1-2" data-name="Layer 1"><path class="cls-1" d="M20,1A19,19,0,1,1,1,20,19,19,0,0,1,20,1m0-1A20,20,0,1,0,40,20,20,20,0,0,0,20,0Z"/><path class="cls-2" d="M26.06,15.06c0,3-3,6.06-3,9.09H17c0-3-3-6.06-3-9.09a6.06,6.06,0,1,1,12.12,0Z"/><rect class="cls-2" x="16.97" y="25.31" width="6.06" height="0.74"/><path class="cls-2" d="M17.77,27.19A1.81,1.81,0,0,0,19.58,29h.84a1.81,1.81,0,0,0,1.81-1.81Z"/></g></g></svg>