<svg xmlns="http://www.w3.org/2000/svg" viewBox="0 0 40 40"><defs><style>.cls-1{fill:#22c36a;}.cls-2{fill:#fff;}</style></defs><title>Asset 5Koda</title><g id="Layer_2" data-name="Layer 2"><g id="Layer_1-2" data-name="Layer 1"><circle class="cls-1" cx="20" cy="20" r="20"/><path class="cls-2" d="M20,9A11,11,0,1,0,31,20,11,11,0,0,0,20,9Zm0,20a9,9,0,1,1,9-9A9,9,0,0,1,20,29Z"/><path class="cls-2" d="M20.71,14.29a1,1,0,0,0-1.42,0l-5,5a1,1,0,0,0,0,1.42l5,5A1,1,0,0,0,20,26a1,1,0,0,0,.71-.29l5-5a1,1,0,0,0,0-1.42Z"/></g></g></svg>